<svg clip-rule="evenodd" fill-rule="evenodd" stroke-linejoin="round"
    stroke-miterlimit="2"
    viewBox="0 0 560 400" xmlns="http://www.w3.org/2000/svg"
    xmlns:xlink="http://www.w3.org/1999/xlink">
    <linearGradient id="a"
        gradientTransform="matrix(-19.3337 135.335 135.335 19.3337 288.967 106.651)"
        gradientUnits="userSpaceOnUse" x1="0" x2="1" y1="0" y2="0">
        <stop offset="0" stop-color="#60baeb" />
        <stop offset=".04" stop-color="#60baeb" />
        <stop offset=".13" stop-color="#4fb4e9" />
        <stop offset=".82" stop-color="#4054ad" />
        <stop offset="1" stop-color="#4054ad" />
    </linearGradient>
    <g fill-rule="nonzero">
        <path
            d="m265.985 181.488s2.388-9.045-7.985-20.707l-.346-.365c-4.364-5.179-6.775-11.743-6.775-18.501 0-15.851 12.911-28.751 28.786-28.751h.669c15.874 0 28.785 12.9 28.785 28.751 0 6.758-2.405 13.322-6.77 18.496-.052.059-.17.182-.346.358-9.204 9.222-7.99 20.719-7.99 20.719 16.813-5.796 28.176-21.605 28.27-39.339.123-22.168-17.776-41.069-39.89-42.131-.276-.011-.553-.018-.822-.018-.334 0-1.578.024-1.572.024-.035 0-1.238-.024-1.567-.024-.276 0-.552.007-.821.018-22.121 1.062-40.013 19.963-39.897 42.131.101 17.734 11.457 33.543 28.271 39.339"
            fill="#353435" />
        <path
            d="m320.312 214.85c.727-.304 1.578-.551 2.516-.732.874-.194 1.848-.318 2.91-.353 0 0-.047-.328-.112-.815-.029-.481-.257-1.121-.475-1.753-.112-.313-.223-.622-.323-.911-.128-.287-.293-.551-.41-.78-.246-.445-.411-.745-.411-.745-1.05-.169-2.041-.405-3.003-.68-.98-.276-1.901-.592-2.711-.933-1.536-.674-2.98-1.432-3.742-2.276-.921-.803-1.091-1.608-1.061-2.334.052-.358.217-.704.497-1.027.259-.317.599-.605 1.091-.85 0 0-.368-.206-.909-.511-.276-.147-.575-.323-.926-.505-.37-.176-.757-.364-1.145-.546-.761-.363-1.524-.727-2.164-.968-.61-.245-1.014-.41-1.014-.41-.739.099-1.543.153-2.359.165-.844.017-1.706-.007-2.545-.071-1.649-.141-3.328-.37-4.776-.798-.752-.193-1.39-.422-1.947-.674-.558-.247-1.057-.493-1.455-.77-.763-.556-1.286-1.119-1.279-1.689 0 0-.464-.075-1.156-.193-.716-.111-2.241-.316-3.209-.446-.017.164-.123.317-.158.587l-.247 1.185c-.504 2.37.869 4.775 3.197 5.449 5.702 1.66 10.015 4.395 11.258 7.749 2.517 6.788-8.055 13.422-24.129 13.422-16.079 0-26.65-6.634-24.139-13.422 1.215-3.272 5.356-5.953 10.854-7.625 2.433-.739 3.877-3.244 3.354-5.731l-.339-1.614c-.64.076-1.385.17-2.148.264-.956.106-1.866.276-2.563.387-.698.112-1.168.193-1.168.193.047.553-.346 1.175-1.097 1.708-.392.27-.827.551-1.36.803-.535.259-1.192.476-1.878.704-.709.224-1.502.388-2.294.528-.78.153-1.613.264-2.469.335-1.707.135-3.42.169-4.974-.024 0 0-.106.042-.283.112-.17.076-.445.176-.721.311-.569.269-1.338.639-2.112 1.009-.762.381-1.442.792-1.994 1.097-.277.152-.505.281-.663.37-.147.099-.229.152-.229.152 1.074.499 1.672 1.173 1.79 1.889.269.756-.101 1.542-.798 2.399-.405.434-.952.844-1.508 1.244-.593.405-1.333.787-2.16 1.15-1.548.733-3.554 1.378-5.707 1.766 0 0-.188.304-.328.762-.165.463-.381 1.092-.605 1.731-.094.633-.181 1.284-.252 1.783-.094.504-.047.833-.047.833 2.223.024 4.2.399 5.679.992 1.719.568 2.756 1.418 3.561 2.457.634 1.121.886 2.294.323 3.649-.394 1.321-1.474 2.793-3.234 4.129 0 0 .101.089.271.235.193.142.475.34.815.582.699.481 1.578 1.161 2.61 1.776 1.091.599 2.2 1.204 3.039 1.666.417.235.84.382 1.104.506.275.122.433.186.433.186 2.481-1.06 5.145-1.606 7.809-1.889 1.331-.139 2.639-.175 3.889-.092 1.272.064 2.568.163 3.783.45 1.203.318 2.376.617 3.403 1.074 1.044.452 1.97 1.044 2.851 1.614 1.754 1.196 3.102 2.885 3.684 4.663 0 0 .904.036 2.259.088 1.36.035 3.173.158 4.98.065 1.806-.058 3.619-.089 4.962-.176 1.326-.129 2.212-.212 2.212-.212.188-.926.599-1.8 1.162-2.593.275-.387.593-.756.944-1.102.34-.358.698-.722 1.097-1.044.786-.646 1.684-1.203 2.698-1.649.986-.464 2.042-.897 3.262-1.173 1.244-.247 2.412-.493 3.678-.581 1.25-.1 2.611-.041 3.872.011 2.575.141 5.432.735 7.914 1.673 0 0 .551-.305 1.373-.763.785-.469 1.918-1.026 2.785-1.718.886-.657 1.819-1.279 2.383-1.795.551-.516.909-.857.909-.857-1.848-1.273-2.91-2.64-3.59-3.989-.317-.652-.405-1.262-.423-1.865-.047-.61.082-1.18.423-1.708.481-1.079 1.713-1.877 3.115-2.511"
            fill="#353435" />
        <path
            d="m258.683 142.004c-.047 5.284 2.51 10.06 6.646 13.427 5.116 4.164 9.311 12.595 9.556 21.793.271 10.212-.428 22.033-.857 28.047-5.467.774-9.309 2.603-9.309 4.734 0 2.832 6.805 6.106 15.2 6.106s15.2-3.274 15.2-6.106c0-2.131-3.837-3.96-9.316-4.734-.429-6.014-1.121-17.835-.851-28.047.252-9.198 4.434-17.629 9.556-21.793 4.136-3.367 6.7-8.143 6.646-13.427-.087-10.067-9.597-18.168-21.235-18.168-11.644 0-21.153 8.101-21.236 18.168"
            fill="url(#a)" />
        <g fill="#333430">
            <path
                d="m137.035 296.176c-2.37 2.37-5.514 3.555-8.629 3.555-7.99 0-12.149-5.585-12.191-11.985-.064-6.323 4.066-12.249 12.191-12.249 3.115 0 6.259 1.185 8.629 3.555l-1.255 1.08c-2.031-2.03-4.706-3.01-7.374-3.01-6.905 0-10.46 4.876-10.425 10.56.064 5.549 3.585 10.353 10.425 10.353 2.668 0 5.379-1.014 7.409-3.009z" />
            <path d="m146.057 275.768v21.963h13.335v1.731h-15.165v-23.694z" />
            <path
                d="m167.602 287.614c.036 5.349 3.42 10.559 10.155 10.559 6.769 0 10.19-5.21 10.19-10.559 0-5.486-3.385-10.525-10.19-10.525s-10.19 4.94-10.155 10.525m22.098.035c-.029 6.224-3.989 12.22-11.943 12.22-7.955 0-11.95-6.025-11.95-12.291 0-6.359 3.96-12.184 11.95-12.184 7.983 0 11.978 5.855 11.943 12.255" />
            <path
                d="m216.156 275.768v14.724c0 12.383-18.14 12.419-18.14 0v-14.724h1.79v14.724c0 10.183 14.555 10.155 14.555 0v-14.724z" />
            <path
                d="m226.769 277.494v20.203h6.195c7.038 0 10.289-5.279 10.183-10.354-.099-4.945-3.35-9.849-10.183-9.849zm18.208 9.849c.135 6.025-3.724 12.114-12.013 12.114h-8.025v-23.688h8.025c8.018 0 11.879 5.755 12.013 11.574" />
            <path d="m255.654 299.46v-23.659h17.024v4.301h-12.56v6.464h11.886v4.129h-11.886v8.765z" />
            <path
                d="m283.089 287.851c.099 3.889 2.2 8.053 7.785 8.053 5.584 0 7.684-4.193 7.748-8.089.07-3.995-2.164-8.459-7.748-8.459-5.585 0-7.884 4.5-7.785 8.495m19.933-.1c-.064 6.125-3.824 12.249-12.148 12.249-8.331 0-12.185-5.99-12.185-12.213 0-6.231 3.995-12.489 12.185-12.489 8.153 0 12.218 6.258 12.148 12.453" />
            <path
                d="m331.068 275.801v13.574c0 7.004-4.3 10.595-10.254 10.595-5.69 0-10.53-3.455-10.53-10.595v-13.574h4.435v13.574c0 4.264 2.44 6.53 6.131 6.53 3.689 0 5.783-2.471 5.783-6.53v-13.574z" />
            <path
                d="m354.982 275.733h4.464v23.729h-2.775v.029l-12.454-16.008v15.979h-4.464v-23.694h3.619l11.61 14.689z" />
            <path
                d="m371.654 295.162h4.876c5.378 0 7.514-3.925 7.408-7.785-.1-3.689-2.265-7.38-7.408-7.38h-4.876zm16.719-7.75c.105 5.99-3.556 12.049-11.843 12.049h-9.311v-23.693h9.311c8.124 0 11.743 5.79 11.843 11.644" />
            <path
                d="m399.799 279.93v7.58h6.805c2.839 0 4.059-1.896 4.059-3.79 0-1.896-1.255-3.79-4.059-3.79zm16.513 19.529h-5.314l-6.905-7.919h-4.294v7.919h-4.47v-23.724c3.761 0 7.514.03 11.275.03 5.578.035 8.523 3.76 8.523 7.856 0 3.249-1.489 6.528-5.988 7.443l7.173 8.089z" />
            <path
                d="m432.107 285.549 6.294-9.78h5.385v.2l-9.444 13.709v9.78h-4.471v-9.78l-9.104-13.709v-.2h5.314z" />
        </g>
    </g>
</svg>